
Format : AVI
Format/Info : Audio Video Interleave
File size : 1.06 GiB
Duration : 1h 31mn
Overall bit rate : 1 657 Kbps
Writing library : VirtualDub build 32842/release

Video
ID : 0
Format : MPEG-4 Visual
Format profile : Advanced Simple@L5
Format settings, BVOP : 1
Format settings, QPel : No
Format settings, GMC : No warppoints
Format settings, Matrix : Default (H.263)
Muxing mode : Packed bitstream
Codec ID : XVID
Codec ID/Hint : XviD
Duration : 1h 31mn
Bit rate : 1 264 Kbps
Width : 730 pixels
Height : 304 pixels
Display aspect ratio : 2.40:1
Frame rate : 24.000 fps
Color space : YUV
Chroma subsampling : 4:2:0
Bit depth : 8 bits
Scan type : Progressive
Compression mode : Lossy
Bits/(Pixel*Frame) : 0.237
Stream size : 826 MiB (76%)
Writing library : XviD 64

Audio
ID : 1
Format : AC-3
Format/Info : Audio Coding 3
Mode extension : CM (complete main)
Codec ID : 2000
Duration : 1h 31mn
Bit rate mode : Constant
Bit rate : 384 Kbps
Channel(s) : 6 channels
Channel positions : Front: L C R, Side: L R, LFE
Sampling rate : 48.0 KHz
Bit depth : 16 bits
Compression mode : Lossy
Stream size : 251 MiB (23%)
Alignment : Aligned on interleaves
Interleave, duration : 42 ms (1.00 video frame)
Interleave, preload duration : 512 ms

 
http://www.imdb.com/title/tt1430607/


Storyline

Arthur Christmas reveals the incredible, never-before seen answer to every child's question: 'So how does Santa deliver all those presents in one night?' The answer: Santa's exhilarating, ultra-high-tech operation hidden beneath the North Pole. But at the center of the film is a story about a family in a state of comic dysfunction and an unlikely hero, Arthur, with an urgent mission that must be completed before Christmas morning dawns.
 
http://img513.imageshack.us/img513/5560/vlcsnap2011121817h38m08.png
 
http://img440.imageshack.us/img440/4473/vlcsnap2011121817h36m44.png
 
http://img52.imageshack.us/img52/2933/vlcsnap2011121817h38m37.png
 
http://img685.imageshack.us/img685/6342/vlcsnap2011121817h37m12.png


Source Used




iLLUMiNATi 720p ...........Thanks



Source already great ran a couple of filters sample included
